<svg width="61" height="72" viewBox="0 0 61 72" fill="none" xmlns="http://www.w3.org/2000/svg">
<g clip-path="url(#clip0_964_17605)">
<path d="M30.6112 42C39.0522 42 45.9168 35.721 45.9168 28C45.9168 20.279 39.0522 14 30.6112 14C22.1702 14 15.3057 20.279 15.3057 28C15.3057 35.721 22.1702 42 30.6112 42ZM30.6112 21C34.8317 21 38.264 24.1395 38.264 28C38.264 31.8605 34.8317 35 30.6112 35C26.3907 35 22.9584 31.8605 22.9584 28C22.9584 24.1395 26.3907 21 30.6112 21Z" fill="white"/>
<path d="M28.4297 70.3403C29.0661 70.7693 29.8286 71 30.6107 71C31.3927 71 32.1553 70.7693 32.7917 70.3403C33.9348 69.577 60.8027 51.2624 60.6937 28.4002C60.6937 12.7411 47.1977 0 30.6107 0C14.0237 0 0.527675 12.7411 0.527675 28.3825C0.418624 51.2624 27.2865 69.577 28.4297 70.3403ZM30.6107 7.10006C43.0538 7.10006 53.1729 16.6532 53.1729 28.418C53.2519 44.173 36.6724 58.3199 30.6107 62.9598C24.5527 58.3163 7.96946 44.1659 8.04843 28.4002C8.04843 16.6532 18.1676 7.10006 30.6107 7.10006Z" fill="white"/>
</g>
<defs>
<clipPath id="clip0_964_17605">
<rect width="60" height="72" fill="white" transform="translate(0.5)"/>
</clipPath>
</defs>
</svg>
